<svg width="18" height="24" viewBox="0 0 18 24" fill="none" xmlns="http://www.w3.org/2000/svg">
<path d="M14.359 23.432C13.6136 23.432 13.0243 23.2587 12.591 22.912C12.175 22.5653 11.863 22.1147 11.655 21.56C11.4643 21.0053 11.317 20.416 11.213 19.792C10.3116 20.1387 9.39297 20.312 8.45697 20.312C7.3823 20.312 6.35097 20.0867 5.36297 19.636C4.3923 19.168 3.52564 18.5093 2.76297 17.66C2.0003 16.8107 1.39364 15.788 0.942969 14.592C0.509635 13.396 0.292969 12.0613 0.292969 10.588C0.292969 9.09735 0.509635 7.75401 0.942969 6.55801C1.39364 5.36201 2.0003 4.33934 2.76297 3.49001C3.52564 2.62334 4.3923 1.96468 5.36297 1.51401C6.35097 1.04601 7.3823 0.812012 8.45697 0.812012C9.53164 0.812012 10.5543 1.04601 11.525 1.51401C12.513 1.96468 13.3883 2.62334 14.151 3.49001C14.9136 4.33934 15.5116 5.36201 15.945 6.55801C16.3956 7.75401 16.621 9.09735 16.621 10.588C16.621 12.4253 16.283 14.0547 15.607 15.476C14.9483 16.88 14.0816 17.9893 13.007 18.804C13.3363 19.5493 13.683 20.1907 14.047 20.728C14.411 21.2827 14.8616 21.56 15.399 21.56C15.6936 21.56 15.945 21.482 16.153 21.326C16.361 21.1873 16.5343 21.0573 16.673 20.936C16.8983 20.78 17.089 20.7713 17.245 20.91C17.401 21.066 17.4096 21.2393 17.271 21.43C17.1496 21.6207 16.9676 21.872 16.725 22.184C16.4823 22.5133 16.1616 22.7993 15.763 23.042C15.3816 23.302 14.9136 23.432 14.359 23.432ZM5.85697 18.674C5.7183 18.5007 5.59697 18.2493 5.49297 17.92C5.38897 17.5733 5.33697 17.244 5.33697 16.932C5.33697 16.1173 5.62297 15.4327 6.19497 14.878C6.76697 14.306 7.4863 14.02 8.35297 14.02C9.0463 14.02 9.63564 14.1847 10.121 14.514C10.6236 14.826 11.0483 15.242 11.395 15.762C11.759 16.2647 12.0796 16.8107 12.357 17.4C12.8423 16.724 13.2236 15.8227 13.501 14.696C13.7783 13.552 13.917 12.1827 13.917 10.588C13.917 8.36935 13.657 6.61868 13.137 5.33601C12.6343 4.03601 11.967 3.10868 11.135 2.55401C10.303 1.99935 9.4103 1.72201 8.45697 1.72201C7.52097 1.72201 6.63697 1.99935 5.80497 2.55401C4.97297 3.10868 4.29697 4.03601 3.77697 5.33601C3.2743 6.61868 3.02297 8.36935 3.02297 10.588C3.02297 12.8413 3.29164 14.618 3.82897 15.918C4.3663 17.2007 5.0423 18.1193 5.85697 18.674ZM8.50897 19.454C8.95964 19.454 9.40164 19.402 9.83497 19.298C10.2856 19.1767 10.7016 18.9947 11.083 18.752C10.979 18.076 10.849 17.452 10.693 16.88C10.537 16.2907 10.2856 15.814 9.93897 15.45C9.5923 15.086 9.08097 14.904 8.40497 14.904C7.76364 14.904 7.23497 15.1033 6.81897 15.502C6.4203 15.9007 6.22097 16.3947 6.22097 16.984C6.22097 17.3307 6.29897 17.7033 6.45497 18.102C6.61097 18.4833 6.85364 18.804 7.18297 19.064C7.52964 19.324 7.97164 19.454 8.50897 19.454Z" fill="#EE7300"/>
</svg>
