<svg width="39" height="39" viewBox="0 0 39 39" fill="none" xmlns="http://www.w3.org/2000/svg">
<path d="M36.4574 26.0414L27.6176 22.0803L27.5932 22.069C27.1343 21.8727 26.6336 21.794 26.1366 21.8398C25.6396 21.8857 25.1619 22.0548 24.7466 22.3317C24.6977 22.364 24.6508 22.3991 24.6059 22.4368L20.0387 26.3304C17.1452 24.9249 14.1579 21.9602 12.7525 19.1042L16.6517 14.4676C16.6893 14.4207 16.7249 14.3738 16.7587 14.3231C17.0297 13.909 17.1941 13.4343 17.2373 12.9412C17.2805 12.4482 17.2012 11.9521 17.0064 11.4972V11.4747L13.034 2.61978C12.7764 2.02545 12.3335 1.53035 11.7715 1.2084C11.2094 0.886448 10.5583 0.754909 9.91534 0.833417C7.37273 1.168 5.03884 2.41669 3.3496 4.34628C1.66035 6.27587 0.73126 8.75439 0.735857 11.3189C0.735857 26.2178 12.8576 38.3396 27.7564 38.3396C30.321 38.3442 32.7995 37.4151 34.7291 35.7258C36.6586 34.0366 37.9073 31.7027 38.2419 29.1601C38.3206 28.5173 38.1893 27.8664 37.8677 27.3043C37.5461 26.7423 37.0514 26.2993 36.4574 26.0414ZM27.7564 35.3373C21.3885 35.3303 15.2834 32.7976 10.7806 28.2948C6.27782 23.792 3.7451 17.6869 3.73814 11.3189C3.73108 9.48657 4.39123 7.71429 5.59531 6.33307C6.79939 4.95185 8.46506 4.05613 10.2812 3.81319C10.2805 3.82068 10.2805 3.82822 10.2812 3.83571L14.2217 12.6549L10.3432 17.2972C10.3038 17.3425 10.268 17.3908 10.2362 17.4417C9.95384 17.875 9.78819 18.3739 9.75531 18.8901C9.72244 19.4062 9.82345 19.9221 10.0486 20.3877C11.7486 23.8648 15.2519 27.3418 18.7665 29.04C19.2355 29.263 19.7544 29.3605 20.2724 29.323C20.7904 29.2855 21.2898 29.1143 21.7218 28.826C21.77 28.7936 21.8164 28.7585 21.8607 28.721L26.4223 24.8292L35.2415 28.7791H35.2621C35.0222 30.5979 34.1278 32.2669 32.7463 33.474C31.3649 34.681 29.5909 35.3435 27.7564 35.3373Z" fill="#EE7300"/>
</svg>
