<svg width="22" height="22" viewBox="0 0 22 22" fill="none" xmlns="http://www.w3.org/2000/svg">
<path d="M14.0914 15.015L15.9114 13.195C16.1566 12.9529 16.4667 12.7872 16.8042 12.718C17.1417 12.6488 17.4921 12.679 17.8127 12.805L20.0308 13.6907C20.3548 13.8222 20.6327 14.0467 20.8293 14.3359C21.026 14.625 21.1326 14.966 21.1358 15.3157V19.3782C21.1339 19.616 21.0839 19.8511 20.9888 20.0691C20.8937 20.2872 20.7554 20.4837 20.5824 20.6469C20.4093 20.8101 20.205 20.9366 19.9817 21.0188C19.7585 21.101 19.5209 21.1371 19.2833 21.125C3.7402 20.1582 0.603945 6.99566 0.0108204 1.95816C-0.0167128 1.71078 0.00844359 1.46038 0.0846346 1.22342C0.160826 0.986466 0.286324 0.768327 0.452875 0.583356C0.619426 0.398385 0.823253 0.250775 1.05095 0.150235C1.27864 0.0496955 1.52505 -0.00149432 1.77395 3.32061e-05H5.69832C6.04852 0.00106978 6.39039 0.10685 6.67998 0.30377C6.96957 0.500689 7.19362 0.779741 7.32332 1.10503L8.20895 3.32316C8.33915 3.64253 8.37237 3.99318 8.30445 4.33132C8.23654 4.66946 8.0705 4.98009 7.82707 5.22441L6.00707 7.04441C6.00707 7.04441 7.0552 14.1375 14.0914 15.015Z" fill="#0A0A0A"/>
</svg>
