<svg width="99" height="36" viewBox="0 0 99 36" fill="none" xmlns="http://www.w3.org/2000/svg">
<path d="M92.372 18.5507C92.3053 17.924 92.2053 17.4307 92.072 17.0707C91.952 16.7107 91.732 16.4507 91.412 16.2907C91.1053 16.1173 90.632 16.0107 89.992 15.9707C89.872 15.7973 89.8853 15.6573 90.032 15.5507H92.712C93.072 15.5507 93.252 15.3773 93.252 15.0307V9.55066C92.4253 10.8707 91.4586 12.0107 90.352 12.9707C89.2453 13.9307 88.0786 14.7907 86.852 15.5507C86.6386 15.4973 86.5653 15.384 86.632 15.2107C87.472 14.4507 88.2653 13.5507 89.012 12.5107C89.772 11.4707 90.4386 10.364 91.012 9.19067C91.5986 8.01733 92.0453 6.844 92.352 5.67066H91.232C91.232 5.67066 91.0453 5.67733 90.672 5.69066C90.312 5.69066 89.8586 5.71733 89.312 5.77066L89.072 4.91067C89.7253 4.99066 90.2453 5.03733 90.632 5.05066C91.032 5.064 91.232 5.07066 91.232 5.07066C91.2853 5.07066 91.3986 5.07066 91.572 5.07066C91.7586 5.07066 91.9853 5.07066 92.252 5.07066C92.3986 5.07066 92.5586 5.07066 92.732 5.07066C92.9053 5.07066 93.0786 5.07066 93.252 5.07066V2.39066C93.252 1.964 93.2253 1.61066 93.172 1.33066C93.132 1.05066 93.0786 0.850665 93.012 0.730665C92.972 0.637331 92.9853 0.557331 93.052 0.490664C93.092 0.450664 93.152 0.430664 93.232 0.430664C93.4453 0.430664 93.7253 0.457331 94.072 0.510664C94.4186 0.563998 94.7586 0.617331 95.092 0.670664C95.4386 0.723998 95.6986 0.777332 95.872 0.830665C96.0586 0.870665 96.1386 0.990664 96.112 1.19066C96.0986 1.37733 95.992 1.484 95.792 1.51066C95.5253 1.524 95.392 1.664 95.392 1.93067V5.07066H95.472C95.632 5.07066 95.7453 5.024 95.812 4.93066C95.8786 4.83733 95.972 4.704 96.092 4.53066C96.212 4.35733 96.332 4.184 96.452 4.01066C96.572 3.83733 96.6586 3.71066 96.712 3.63066C96.7786 3.53733 96.8586 3.49066 96.952 3.49066C97.0453 3.47733 97.132 3.504 97.212 3.57066C97.452 3.744 97.7186 3.99733 98.012 4.33067C98.3053 4.664 98.5386 4.944 98.712 5.17067C98.8053 5.29067 98.832 5.404 98.792 5.51066C98.752 5.61733 98.6786 5.67066 98.572 5.67066H95.392V5.95066C95.392 7.05733 95.3986 8.15733 95.412 9.25067C95.4386 10.3307 95.4653 11.324 95.492 12.2307C95.532 13.124 95.5586 13.8573 95.572 14.4307C95.5986 15.004 95.612 15.3373 95.612 15.4307C95.612 16.004 95.5186 16.4973 95.332 16.9107C95.1586 17.3107 94.8386 17.644 94.372 17.9107C93.9053 18.1773 93.2386 18.3907 92.372 18.5507ZM83.972 18.5507C83.612 18.5507 83.432 18.384 83.432 18.0507C83.432 17.9707 83.4453 17.7107 83.472 17.2707C83.4986 16.844 83.5253 16.2907 83.552 15.6107C83.592 14.9307 83.6253 14.1907 83.652 13.3907C83.6786 12.5773 83.6986 11.7707 83.712 10.9707C83.2053 11.824 82.6453 12.6373 82.032 13.4107C81.4186 14.184 80.7786 14.9107 80.112 15.5907C79.912 15.6173 79.7986 15.5307 79.772 15.3307C80.2786 14.504 80.7586 13.5707 81.212 12.5307C81.6786 11.4907 82.0986 10.3907 82.472 9.23067C82.8453 8.05733 83.1386 6.87066 83.352 5.67066H82.232C82.232 5.67066 82.0453 5.67733 81.672 5.69066C81.312 5.69066 80.8586 5.71733 80.312 5.77066L80.072 4.91067C80.7253 4.99066 81.2453 5.03733 81.632 5.05066C82.032 5.064 82.232 5.07066 82.232 5.07066C82.3253 5.07066 82.4386 5.07066 82.572 5.07066C82.7186 5.07066 82.8853 5.07066 83.072 5.07066C83.1786 5.07066 83.2853 5.07066 83.392 5.07066C83.4986 5.07066 83.612 5.07066 83.732 5.07066V2.05066C83.732 1.704 83.712 1.43733 83.672 1.25066C83.632 1.05066 83.5986 0.903998 83.572 0.810665C83.532 0.690665 83.5186 0.610665 83.532 0.570665C83.5586 0.490665 83.632 0.450665 83.752 0.450665C83.9253 0.450665 84.1853 0.477331 84.532 0.530664C84.8786 0.583997 85.2253 0.643998 85.572 0.710664C85.932 0.763998 86.192 0.817331 86.352 0.870664C86.432 0.897331 86.4853 0.943998 86.512 1.01066C86.5386 1.07733 86.552 1.144 86.552 1.21066C86.5253 1.37066 86.4386 1.464 86.292 1.49066C86.1453 1.51733 86.032 1.564 85.952 1.63066C85.872 1.69733 85.832 1.824 85.832 2.01067V5.07066H86.052C86.212 5.07066 86.3253 5.024 86.392 4.93066C86.4986 4.79733 86.612 4.63733 86.732 4.45066C86.852 4.264 86.9653 4.09733 87.072 3.95066C87.1386 3.85733 87.2186 3.81066 87.312 3.81066C87.4053 3.79733 87.492 3.824 87.572 3.89066C87.7453 4.01066 87.972 4.204 88.252 4.47066C88.5453 4.724 88.792 4.95733 88.992 5.17067C89.0853 5.27733 89.112 5.39067 89.072 5.51066C89.032 5.61733 88.9586 5.67066 88.852 5.67066H85.832V7.47066C86.3653 7.49733 86.872 7.59066 87.352 7.75067C87.8453 7.91067 88.2653 8.144 88.612 8.45066C88.9586 8.75733 89.172 9.15067 89.252 9.63066C89.3453 10.1107 89.2786 10.504 89.052 10.8107C88.8253 11.104 88.5586 11.2907 88.252 11.3707C87.9853 11.4507 87.732 11.4373 87.492 11.3307C87.252 11.224 87.1053 11.0173 87.052 10.7107C86.972 10.164 86.832 9.67066 86.632 9.23067C86.432 8.77733 86.1653 8.39067 85.832 8.07066V17.8107C85.832 18.024 85.6386 18.1973 85.252 18.3307C84.8653 18.4773 84.4386 18.5507 83.972 18.5507Z" fill="#0A0A0A"/>
<path d="M61.7919 18.7506C61.6453 18.8039 61.5386 18.7639 61.4719 18.6306C61.3653 18.4573 61.2186 18.1839 61.0319 17.8106C60.8586 17.4373 60.6919 17.0639 60.5319 16.6906C60.3719 16.3039 60.2519 16.0239 60.1719 15.8506C60.1319 15.7573 60.1253 15.6839 60.1519 15.6306C60.1786 15.5906 60.2519 15.5573 60.3719 15.5306L61.0719 15.4906C61.4186 15.4639 61.8253 15.4373 62.2919 15.4106C62.7586 15.3839 63.2519 15.3573 63.7719 15.3306V8.45059C63.7719 8.18392 63.7653 7.93726 63.752 7.71059C63.752 7.48392 63.7453 7.27726 63.7319 7.09059C62.5186 7.77059 61.2453 8.31059 59.9119 8.71059C59.7253 8.61726 59.6786 8.49059 59.7719 8.33059C60.7453 7.82392 61.6986 7.17726 62.6319 6.39059C63.5653 5.60392 64.3986 4.73726 65.1319 3.79059C65.8653 2.84392 66.4186 1.89059 66.7919 0.930588C66.8586 0.783921 66.8986 0.650588 66.9119 0.530588C66.9386 0.410589 66.9586 0.310589 66.9719 0.230588C67.0119 0.0439215 67.1319 -0.0294119 67.3319 0.0105884C67.4119 0.0239215 67.5719 0.0572553 67.8119 0.110589C68.0653 0.163922 68.3519 0.230589 68.6719 0.310589C68.9919 0.390588 69.2986 0.477255 69.5919 0.570589C69.8986 0.650589 70.1386 0.723921 70.3119 0.790588C70.3919 0.817255 70.4453 0.870589 70.4719 0.950588C70.4986 1.03059 70.4986 1.10392 70.4719 1.17059C70.4186 1.31726 70.3186 1.39059 70.1719 1.39059H70.1519C70.5386 1.92392 71.0519 2.39725 71.6919 2.81059C72.3453 3.22392 73.0719 3.57059 73.8719 3.85059C74.6719 4.13059 75.4986 4.35059 76.3519 4.51059C77.2053 4.67059 78.0386 4.77059 78.8519 4.81059C78.5586 4.98392 78.2786 5.23726 78.0119 5.57059C77.7586 5.89059 77.5386 6.23059 77.3519 6.59059C77.1786 6.93725 77.0586 7.24392 76.9919 7.51059C76.6853 7.41725 76.3653 7.31059 76.0319 7.19059C75.7119 7.07059 75.392 6.93059 75.072 6.77059C75.072 6.93059 75.0053 7.04392 74.8719 7.11059C74.8186 7.13726 74.7719 7.16392 74.7319 7.19059C74.6919 7.20392 74.6319 7.23059 74.5519 7.27059C74.4853 7.31059 74.432 7.37059 74.392 7.45059C74.352 7.53059 74.3319 7.66392 74.3319 7.85059C74.3319 8.21059 74.3386 8.64392 74.3519 9.15059C74.3786 9.65726 74.3986 10.1506 74.4119 10.6306C74.4386 11.0973 74.4586 11.4706 74.472 11.7506C74.8186 11.8973 75.1719 12.0573 75.5319 12.2306C75.9053 12.4039 76.2053 12.5506 76.432 12.6706C76.5653 12.7506 76.6119 12.8573 76.572 12.9906C76.5319 13.1506 76.4386 13.2173 76.2919 13.1906C76.0786 13.1773 75.912 13.1906 75.792 13.2306C75.6853 13.2706 75.552 13.3439 75.392 13.4506C74.9386 13.7306 74.4386 14.0039 73.892 14.2706C73.3586 14.5239 72.8386 14.7573 72.3319 14.9706C73.3053 15.3573 74.3586 15.5973 75.4919 15.6906C76.6386 15.7839 77.712 15.8039 78.712 15.7506C78.2186 16.0839 77.792 16.5239 77.432 17.0706C77.0853 17.6173 76.8586 18.1173 76.752 18.5706C75.4453 18.3839 74.2119 18.0373 73.0519 17.5306C71.9053 17.0239 70.9519 16.3039 70.1919 15.3706C69.8053 15.4906 69.3319 15.6439 68.7719 15.8306C68.2253 16.0039 67.6453 16.1973 67.0319 16.4106C66.4186 16.6106 65.8119 16.8106 65.2119 17.0106C64.6253 17.1973 64.0853 17.3706 63.5919 17.5306C63.1119 17.7039 62.7319 17.8373 62.4519 17.9306C62.2786 17.9839 62.1453 18.0373 62.0519 18.0906C61.9719 18.1573 61.9453 18.2706 61.9719 18.4306C61.9986 18.5906 61.9386 18.6973 61.7919 18.7506ZM66.2919 6.47059H67.9919V5.45059C67.9919 5.11725 67.972 4.87725 67.932 4.73059C67.892 4.57059 67.8586 4.44392 67.8319 4.35059C67.8319 4.35059 67.8319 4.34392 67.8319 4.33059C67.8053 4.25059 67.8053 4.18392 67.8319 4.13059C67.8453 4.03726 67.9253 3.99059 68.072 3.99059C68.2853 4.00392 68.5586 4.04392 68.892 4.11059C69.2386 4.16392 69.5853 4.22392 69.932 4.29059C70.292 4.35725 70.5786 4.42392 70.792 4.49059C70.9386 4.53059 70.9986 4.64392 70.9719 4.83059C70.9586 4.96392 70.8786 5.05726 70.7319 5.11059C70.5719 5.16392 70.4653 5.23059 70.4119 5.31059C70.3586 5.37725 70.3319 5.50392 70.3319 5.69059V6.47059H71.6319C71.8453 6.47059 71.992 6.41059 72.072 6.29059C72.1386 6.21059 72.212 6.11059 72.292 5.99059C72.372 5.87059 72.4453 5.76392 72.5119 5.67059C72.6053 5.52392 72.7386 5.47726 72.9119 5.53059H72.972C72.252 5.02392 71.5986 4.43059 71.0119 3.75059C70.4253 3.07059 69.9786 2.31726 69.6719 1.49059C69.5919 1.54392 69.5053 1.65059 69.4119 1.81059C68.8519 2.66392 68.2319 3.44392 67.5519 4.15059C66.8719 4.84392 66.1519 5.47059 65.392 6.03059C65.5519 6.09726 65.7053 6.17059 65.8519 6.25059C66.0119 6.33059 66.1586 6.40392 66.2919 6.47059ZM66.0519 11.4706H72.072V9.51059H66.0519V11.4706ZM66.0519 8.91059H72.072V7.09059H66.0519V8.91059ZM66.0519 15.1906C66.8386 15.1373 67.572 15.0906 68.252 15.0506C68.9453 14.9973 69.492 14.9639 69.892 14.9506C69.612 14.5506 69.3719 14.1173 69.1719 13.6506C68.9853 13.1706 68.8386 12.6439 68.7319 12.0706H66.0519V15.1906ZM71.6519 14.6706C72.0519 14.1773 72.4186 13.6106 72.752 12.9706H72.6519C72.2653 12.9706 72.072 12.8039 72.072 12.4706V12.0706H69.2719C69.4986 12.6706 69.8186 13.1839 70.2319 13.6106C70.6453 14.0239 71.1186 14.3773 71.6519 14.6706Z" fill="#0A0A0A"/>
<path d="M49.572 18.2507C49.2786 18.304 49.0186 18.2307 48.792 18.0307C48.5786 17.8307 48.472 17.5774 48.472 17.2707C48.472 16.4174 48.3653 15.5174 48.152 14.5707C47.9386 13.6107 47.652 12.664 47.292 11.7307C46.932 10.784 46.5253 9.90403 46.072 9.09069C45.7386 9.34403 45.4253 9.59069 45.132 9.83069C44.8386 10.0574 44.5653 10.264 44.312 10.4507C44.0186 10.6774 43.752 10.8707 43.512 11.0307C43.2853 11.1774 43.052 11.2507 42.812 11.2507C42.452 11.2507 42.1186 11.1174 41.812 10.8507C41.5186 10.584 41.2786 10.2507 41.092 9.85069C40.9053 9.43736 40.7986 9.03736 40.772 8.65069C40.7986 8.57069 40.8453 8.51736 40.912 8.49069C40.9786 8.45069 41.0453 8.44403 41.112 8.47069C41.312 8.71069 41.5053 8.86403 41.692 8.93069C41.892 8.99736 42.1386 9.03069 42.432 9.03069C42.752 9.03069 43.152 8.91069 43.632 8.67069C44.112 8.41736 44.6586 8.10403 45.272 7.73069C45.0853 7.46403 44.8986 7.21069 44.712 6.97069C44.5386 6.73069 44.3586 6.51736 44.172 6.33069C43.932 6.07736 43.7586 5.85069 43.652 5.65069C43.5586 5.43736 43.512 5.19069 43.512 4.91069C43.512 4.51069 43.672 4.17069 43.992 3.89069C44.312 3.59736 44.7586 3.45069 45.332 3.45069C45.8786 3.45069 46.3786 3.55736 46.832 3.77069C47.2986 3.98403 47.712 4.17069 48.072 4.33069C48.4853 4.53069 48.7786 4.49736 48.952 4.23069C49.072 4.05736 49.112 3.80403 49.072 3.47069C49.0453 3.13736 48.892 2.81736 48.612 2.51069C48.612 2.31069 48.6986 2.21069 48.872 2.21069C49.272 2.31736 49.6386 2.48403 49.972 2.71069C50.3186 2.92403 50.5853 3.20403 50.772 3.55069C50.972 3.89736 51.0453 4.31069 50.992 4.79069C50.9786 4.84403 50.9653 4.89736 50.952 4.95069C50.952 4.99069 50.9386 5.03736 50.912 5.09069C51.2986 4.98403 51.6853 4.90403 52.072 4.85069C52.4586 4.79736 52.852 4.77069 53.252 4.77069C54.1586 4.77069 54.912 4.91736 55.512 5.21069C56.112 5.50403 56.5653 5.89069 56.872 6.37069C57.192 6.85069 57.372 7.37069 57.412 7.93069C57.492 9.06403 57.152 9.99069 56.392 10.7107C55.6453 11.4174 54.5786 11.784 53.192 11.8107C52.3386 11.8107 51.5653 11.544 50.872 11.0107C50.1786 10.4774 49.6253 9.78403 49.212 8.93069C49.252 8.73069 49.3653 8.65069 49.552 8.69069C50.0186 9.15736 50.592 9.48403 51.272 9.67069C51.952 9.85736 52.6653 9.91736 53.412 9.85069C54.012 9.78403 54.5186 9.58403 54.932 9.25069C55.3453 8.90403 55.532 8.39069 55.492 7.71069C55.4786 7.15069 55.2653 6.67069 54.852 6.27069C54.4386 5.87069 53.8786 5.67069 53.172 5.67069C52.5053 5.67069 51.8253 5.79736 51.132 6.05069C50.452 6.29069 49.7786 6.60403 49.112 6.99069C48.4586 7.37736 47.8253 7.79069 47.212 8.23069C47.6253 8.88403 48.0386 9.58403 48.452 10.3307C48.8653 11.064 49.2453 11.8107 49.592 12.5707C49.9386 13.3174 50.212 14.044 50.412 14.7507C50.6253 15.444 50.732 16.0774 50.732 16.6507C50.732 17.064 50.6386 17.4174 50.452 17.7107C50.2653 18.004 49.972 18.184 49.572 18.2507ZM46.452 7.05069C46.8386 6.82403 47.2386 6.60403 47.652 6.39069C48.0786 6.16403 48.5186 5.95069 48.972 5.75069C48.692 5.53736 48.352 5.30403 47.952 5.05069C47.5653 4.79736 47.172 4.58403 46.772 4.41069C46.3853 4.23736 46.0386 4.17069 45.732 4.21069C45.4386 4.23736 45.252 4.37736 45.172 4.63069C45.1053 4.88403 45.1786 5.17069 45.392 5.49069C45.5386 5.67736 45.6986 5.90403 45.872 6.17069C46.0453 6.43736 46.2386 6.73069 46.452 7.05069Z" fill="#0A0A0A"/>
<path d="M21.472 16.8306C21.352 16.524 21.312 16.1973 21.352 15.8506C21.4053 15.504 21.5186 15.2106 21.692 14.9706C22.1053 14.4106 22.5253 13.7373 22.952 12.9506C23.392 12.1506 23.8186 11.2973 24.232 10.3906C24.6453 9.48395 25.012 8.59062 25.332 7.71062C24.9053 7.93729 24.5053 8.15062 24.132 8.35062C23.772 8.53729 23.412 8.63062 23.052 8.63062C22.7053 8.63062 22.412 8.51729 22.172 8.29062C21.9453 8.06395 21.772 7.78395 21.652 7.45062C21.5453 7.11729 21.492 6.78395 21.492 6.45062C21.5986 6.29062 21.732 6.26395 21.892 6.37062C21.972 6.58395 22.1186 6.73062 22.332 6.81062C22.5586 6.87729 22.812 6.91062 23.092 6.91062C23.532 6.91062 23.972 6.85729 24.412 6.75062C24.8653 6.64395 25.3186 6.53729 25.772 6.43062C26.1586 5.25729 26.4053 4.28395 26.512 3.51062C26.552 3.24395 26.5586 3.03729 26.532 2.89062C26.5053 2.73062 26.4586 2.60395 26.392 2.51062C26.3386 2.44395 26.2586 2.39729 26.152 2.37062C26.0453 2.33062 25.9386 2.31729 25.832 2.33062C25.672 2.19729 25.6586 2.06396 25.792 1.93062C26.1653 1.77062 26.5786 1.74395 27.032 1.85062C27.4986 1.95729 27.8786 2.12395 28.172 2.35062C28.4386 2.56395 28.5986 2.80395 28.652 3.07062C28.7053 3.33729 28.6453 3.56395 28.472 3.75062C28.3253 3.92395 28.1986 4.09729 28.092 4.27062C27.9853 4.44395 27.8986 4.63062 27.832 4.83062C27.7786 5.01729 27.7186 5.21729 27.652 5.43062C27.5986 5.64395 27.532 5.86395 27.452 6.09062C27.5853 6.07729 27.7186 6.07062 27.852 6.07062C27.9986 6.05729 28.1386 6.05062 28.272 6.05062C29.1786 6.05062 29.8853 6.29062 30.392 6.77062C30.912 7.23729 31.172 7.83062 31.172 8.55062C31.172 9.23062 31.1186 9.96395 31.012 10.7506C30.9053 11.524 30.752 12.284 30.552 13.0306C30.352 13.7773 30.1053 14.4506 29.812 15.0506C29.5186 15.6373 29.112 16.084 28.592 16.3906C28.072 16.684 27.552 16.7973 27.032 16.7306C26.832 16.704 26.672 16.6306 26.552 16.5106C26.4453 16.3906 26.352 16.2306 26.272 16.0306C26.1786 15.724 26.0386 15.444 25.852 15.1906C25.6786 14.924 25.4053 14.6573 25.032 14.3906C24.992 14.204 25.0653 14.084 25.252 14.0306C25.4786 14.124 25.7386 14.2173 26.032 14.3106C26.3386 14.3906 26.6186 14.4373 26.872 14.4506C27.0586 14.464 27.252 14.4373 27.452 14.3706C27.652 14.2906 27.8253 14.1106 27.972 13.8306C28.132 13.564 28.292 13.2173 28.452 12.7906C28.612 12.364 28.7586 11.904 28.892 11.4106C29.0386 10.904 29.1586 10.404 29.252 9.91062C29.3586 9.41729 29.4186 8.97062 29.432 8.57062C29.472 7.43729 29.092 6.87062 28.292 6.87062C28.0786 6.87062 27.8786 6.88395 27.692 6.91062C27.5186 6.93729 27.3386 6.97062 27.152 7.01062C26.8853 7.81062 26.5786 8.66395 26.232 9.57062C25.8986 10.4773 25.5453 11.384 25.172 12.2906C24.812 13.184 24.452 14.0173 24.092 14.7906C23.7453 15.564 23.412 16.224 23.092 16.7706C22.8653 17.1573 22.572 17.344 22.212 17.3306C21.8653 17.3306 21.6186 17.164 21.472 16.8306ZM35.912 12.7506C35.6453 12.764 35.4253 12.7173 35.252 12.6106C35.092 12.4906 34.932 12.324 34.772 12.1106C34.6386 11.924 34.4853 11.784 34.312 11.6906C34.1386 11.5973 33.8653 11.5173 33.492 11.4506C33.3853 11.2773 33.4053 11.1373 33.552 11.0306C33.992 11.084 34.372 11.024 34.692 10.8506C35.012 10.664 35.1786 10.404 35.192 10.0706C35.2053 9.65729 35.1186 9.23062 34.932 8.79062C34.7453 8.33729 34.4653 7.93729 34.092 7.59062C33.732 7.24395 33.2853 7.01062 32.752 6.89062C32.6453 6.71729 32.6786 6.59062 32.852 6.51062C33.6386 6.55062 34.3853 6.73729 35.092 7.07062C35.812 7.40395 36.4053 7.86395 36.872 8.45062C37.352 9.03729 37.612 9.75062 37.652 10.5906C37.6786 11.204 37.5186 11.7106 37.172 12.1106C36.8386 12.5106 36.4186 12.724 35.912 12.7506Z" fill="#0A0A0A"/>
<path d="M9.73196 17.9907C9.06529 17.9907 8.46529 17.884 7.93196 17.6707C7.41196 17.4573 7.00529 17.1507 6.71196 16.7507C6.41863 16.3507 6.27863 15.8907 6.29196 15.3707C6.31863 14.8373 6.49196 14.3907 6.81196 14.0307C7.13196 13.6707 7.55196 13.3973 8.07196 13.2107C8.60529 13.024 9.18529 12.9307 9.81196 12.9307C10.0386 12.9307 10.2653 12.9373 10.492 12.9507C10.7186 12.964 10.9386 12.984 11.152 13.0107C11.1386 12.504 11.112 12.004 11.072 11.5107C11.0453 11.0173 11.032 10.5307 11.032 10.0507C11.032 9.10399 11.2586 8.42399 11.712 8.01065C12.1653 7.58399 12.7253 7.30399 13.392 7.17066C13.7653 7.10399 13.9986 6.99065 14.092 6.83066C14.1853 6.67065 14.2186 6.47065 14.192 6.23065C14.1653 5.93732 14.0386 5.66399 13.812 5.41065C13.5853 5.14399 13.3053 4.93065 12.972 4.77065C12.932 4.69065 12.9253 4.61065 12.952 4.53065C12.9786 4.45065 13.032 4.39732 13.112 4.37065C13.552 4.39732 13.992 4.48399 14.432 4.63065C14.8853 4.76399 15.292 4.95065 15.652 5.19065C16.012 5.41732 16.292 5.68399 16.492 5.99065C16.692 6.28399 16.7653 6.60399 16.712 6.95065C16.6586 7.40399 16.5053 7.73065 16.252 7.93065C15.9986 8.11732 15.6986 8.21065 15.352 8.21065C15.0186 8.19732 14.6853 8.11732 14.352 7.97065C14.0586 7.81065 13.7453 7.75732 13.412 7.81065C13.0786 7.85065 12.7986 8.01732 12.572 8.31065C12.3453 8.59065 12.232 9.02399 12.232 9.61066C12.232 10.2107 12.292 10.8307 12.412 11.4707C12.5453 12.0973 12.672 12.704 12.792 13.2907C13.432 13.4507 14.0053 13.644 14.512 13.8707C15.0186 14.084 15.4253 14.2907 15.732 14.4907C16.0386 14.6773 16.272 14.944 16.432 15.2907C16.592 15.624 16.6053 15.964 16.472 16.3107C16.3386 16.6573 16.132 16.884 15.852 16.9907C15.5853 17.084 15.312 17.0107 15.032 16.7707C14.7386 16.544 14.4253 16.304 14.092 16.0507C13.7586 15.7973 13.3853 15.564 12.972 15.3507C12.9053 16.1907 12.5853 16.8307 12.012 17.2707C11.452 17.724 10.692 17.964 9.73196 17.9907ZM2.37196 14.2307C2.22529 14.0573 2.11862 13.844 2.05196 13.5907C1.98529 13.3373 1.96529 13.084 1.99196 12.8307C2.03196 12.5773 2.11862 12.3707 2.25196 12.2107C2.66529 11.7307 3.07196 11.164 3.47196 10.5107C3.88529 9.84399 4.26529 9.12399 4.61196 8.35066C4.97196 7.57732 5.28529 6.79065 5.55196 5.99065C5.37863 6.00399 5.20529 6.01732 5.03196 6.03065C4.85862 6.04399 4.67863 6.05732 4.49196 6.07065C3.71863 6.09732 3.15196 5.88399 2.79196 5.43066C2.44529 4.97732 2.27196 4.43065 2.27196 3.79065C2.32529 3.72399 2.39196 3.68399 2.47196 3.67066C2.55196 3.64399 2.61863 3.65732 2.67196 3.71065C2.76529 4.03065 2.97196 4.23732 3.29196 4.33065C3.61196 4.41065 3.97863 4.44399 4.39196 4.43066C4.95196 4.43066 5.49863 4.37066 6.03196 4.25065C6.17863 3.62399 6.27863 3.03066 6.33196 2.47066C6.35863 2.20399 6.35196 1.99732 6.31196 1.85065C6.28529 1.70399 6.21196 1.59065 6.09196 1.51065C6.03863 1.48399 5.96529 1.46399 5.87196 1.45065C5.77863 1.42399 5.69196 1.40399 5.61196 1.39065C5.55863 1.32399 5.53863 1.25065 5.55196 1.17065C5.56529 1.09065 5.59863 1.02399 5.65196 0.970654C6.07862 0.903988 6.49863 0.903988 6.91196 0.970654C7.32529 1.03732 7.65863 1.18399 7.91196 1.41065C8.15196 1.61065 8.29196 1.83065 8.33196 2.07065C8.37196 2.31065 8.29862 2.53732 8.11196 2.75065C7.96529 2.92399 7.85196 3.08399 7.77196 3.23065C7.70529 3.37732 7.63863 3.56399 7.57196 3.79065C7.86529 3.67065 8.13196 3.53732 8.37196 3.39065C8.55863 3.28399 8.74529 3.23065 8.93196 3.23065C9.13196 3.21732 9.37863 3.30399 9.67196 3.49065C10.0053 3.67732 10.1653 3.93066 10.152 4.25065C10.1386 4.57065 9.96529 4.81066 9.63196 4.97066C9.29863 5.11732 8.91863 5.25732 8.49196 5.39065C8.06529 5.52399 7.59863 5.64399 7.09196 5.75066C6.87863 6.51065 6.63863 7.29732 6.37196 8.11065C6.10529 8.91066 5.82529 9.69066 5.53196 10.4507C5.23862 11.2107 4.93862 11.904 4.63196 12.5307C4.33862 13.1573 4.05863 13.664 3.79196 14.0507C3.60529 14.3307 3.36529 14.484 3.07196 14.5107C2.79196 14.524 2.55862 14.4307 2.37196 14.2307ZM9.63196 16.2307C10.0853 16.2173 10.4386 16.064 10.692 15.7707C10.9586 15.4773 11.1186 15.104 11.172 14.6507C10.9186 14.584 10.652 14.5373 10.372 14.5107C10.1053 14.4707 9.82529 14.4507 9.53196 14.4507C8.93196 14.4507 8.47196 14.524 8.15196 14.6707C7.83196 14.8173 7.67196 15.024 7.67196 15.2907C7.65863 15.624 7.81863 15.8707 8.15196 16.0307C8.49863 16.1773 8.99196 16.244 9.63196 16.2307Z" fill="#0A0A0A"/>
<path d="M97.4503 35.0905C97.355 35.0905 97.3073 35.0429 97.3073 34.9475V28.0185C97.3073 27.9145 97.355 27.8625 97.4503 27.8625H97.5673C97.9053 27.8625 98.1566 27.9492 98.3213 28.1225C98.4946 28.2959 98.5813 28.5862 98.5813 28.9935V34.9475C98.5813 35.0429 98.5336 35.0905 98.4383 35.0905H97.4503Z" fill="#0A0A0A"/>
<path d="M91.139 33.2705L90.554 34.9215C90.5194 35.0342 90.4544 35.0905 90.359 35.0905H89.358C89.3147 35.0905 89.2844 35.0775 89.267 35.0515C89.2497 35.0169 89.2454 34.9822 89.254 34.9475L91.776 27.9925C91.802 27.9059 91.854 27.8625 91.932 27.8625H92.361C92.673 27.8625 92.9157 27.9275 93.089 28.0575C93.2624 28.1875 93.4184 28.4432 93.557 28.8245L95.78 34.9475C95.7974 34.9822 95.7974 35.0169 95.78 35.0515C95.7627 35.0775 95.7324 35.0905 95.689 35.0905H94.662C94.532 35.0905 94.4497 35.0342 94.415 34.9215L93.83 33.2705H91.139ZM91.529 32.1915H93.466L92.491 29.3965L91.529 32.1915Z" fill="#0A0A0A"/>
<path d="M84.5331 33.9075H87.3021C87.8048 33.9075 88.0561 34.1502 88.0561 34.6355V34.9085C88.0561 35.0299 87.9954 35.0905 87.8741 35.0905H83.1161C83.0294 35.0905 82.9861 35.0429 82.9861 34.9475V34.1935C82.9861 34.0289 83.0467 33.8599 83.1681 33.6865L86.5091 29.0455H83.2071C83.1118 29.0455 83.0641 28.9979 83.0641 28.9025V28.0185C83.0641 27.9145 83.1118 27.8625 83.2071 27.8625H87.2371C87.4884 27.8625 87.6834 27.9275 87.8221 28.0575C87.9694 28.1789 88.0431 28.3739 88.0431 28.6425V28.8245C88.0431 28.9892 87.9868 29.1495 87.8741 29.3055L84.5331 33.9075Z" fill="#0A0A0A"/>
<path d="M78.5093 35.2205C77.946 35.2205 77.4866 35.1295 77.1313 34.9475C76.776 34.7655 76.503 34.5315 76.3123 34.2455C76.1216 33.9595 75.9916 33.6562 75.9223 33.3355C75.853 33.0149 75.8183 32.7202 75.8183 32.4515V28.0185C75.8183 27.9145 75.866 27.8625 75.9613 27.8625H76.0653C76.412 27.8625 76.6676 27.9492 76.8323 28.1225C77.0056 28.2959 77.0923 28.5862 77.0923 28.9935V32.2045C77.0923 32.7419 77.1963 33.1795 77.4043 33.5175C77.6123 33.8555 77.9806 34.0245 78.5093 34.0245C79.0466 34.0245 79.4236 33.8555 79.6403 33.5175C79.857 33.1709 79.9653 32.7332 79.9653 32.2045V28.0185C79.9653 27.9145 80.0173 27.8625 80.1213 27.8625H80.2253C80.5633 27.8625 80.819 27.9492 80.9923 28.1225C81.1656 28.2959 81.2523 28.5862 81.2523 28.9935V32.4385C81.2523 32.6899 81.2176 32.9759 81.1483 33.2965C81.079 33.6085 80.949 33.9119 80.7583 34.2065C80.5676 34.5012 80.2903 34.7439 79.9263 34.9345C79.571 35.1252 79.0986 35.2205 78.5093 35.2205Z" fill="#0A0A0A"/>
<path d="M70.0828 32.7635V34.9475C70.0828 35.0429 70.0352 35.0905 69.9398 35.0905H68.9518C68.8565 35.0905 68.8088 35.0429 68.8088 34.9475V28.0185C68.8088 27.9145 68.8565 27.8625 68.9518 27.8625H69.0688C69.3982 27.8625 69.6495 27.9535 69.8228 28.1355C69.9962 28.3089 70.0828 28.5992 70.0828 29.0065V31.1385L72.6958 28.0315C72.7825 27.9189 72.8735 27.8625 72.9688 27.8625H74.0348C74.0782 27.8625 74.1042 27.8842 74.1128 27.9275C74.1215 27.9622 74.1128 27.9925 74.0868 28.0185L71.8508 30.6835L74.4248 34.9345C74.4768 35.0385 74.4508 35.0905 74.3468 35.0905H73.2158C73.1032 35.0905 73.0165 35.0385 72.9558 34.9345L70.9928 31.6845L70.0828 32.7635Z" fill="#0A0A0A"/>
<path d="M63.4734 35.2207C62.3987 35.2207 61.5667 34.887 60.9774 34.2197C60.3881 33.5437 60.0934 32.6337 60.0934 31.4897C60.0934 30.727 60.2277 30.064 60.4964 29.5007C60.7651 28.9373 61.1507 28.504 61.6534 28.2007C62.1647 27.8887 62.7714 27.7327 63.4734 27.7327C64.1841 27.7327 64.7864 27.8887 65.2804 28.2007C65.7831 28.504 66.1687 28.9373 66.4374 29.5007C66.7061 30.064 66.8404 30.727 66.8404 31.4897C66.8404 32.6337 66.5457 33.5437 65.9564 34.2197C65.3757 34.887 64.5481 35.2207 63.4734 35.2207ZM63.4734 34.0117C63.8461 34.0117 64.1884 33.938 64.5004 33.7907C64.8124 33.6347 65.0637 33.3747 65.2544 33.0107C65.4451 32.638 65.5404 32.131 65.5404 31.4897C65.5404 30.8483 65.4451 30.3413 65.2544 29.9687C65.0637 29.596 64.8081 29.3317 64.4874 29.1757C64.1754 29.0197 63.8374 28.9417 63.4734 28.9417C63.1007 28.9417 62.7541 29.0197 62.4334 29.1757C62.1214 29.3317 61.8701 29.596 61.6794 29.9687C61.4887 30.3413 61.3934 30.8483 61.3934 31.4897C61.3934 32.131 61.4887 32.638 61.6794 33.0107C61.8701 33.3747 62.1214 33.6347 62.4334 33.7907C62.7541 33.938 63.1007 34.0117 63.4734 34.0117Z" fill="#0A0A0A"/>
<path d="M54.0055 32.1005V34.9475C54.0055 35.0429 53.9578 35.0905 53.8625 35.0905H52.8745C52.7792 35.0905 52.7315 35.0429 52.7315 34.9475V28.0185C52.7315 27.9145 52.7792 27.8625 52.8745 27.8625H52.9915C53.3208 27.8625 53.5722 27.9535 53.7455 28.1355C53.9188 28.3089 54.0055 28.5992 54.0055 29.0065V30.9435H56.8525V28.0185C56.8525 27.9145 56.9002 27.8625 56.9955 27.8625H57.1125C57.4505 27.8625 57.7018 27.9535 57.8665 28.1355C58.0398 28.3089 58.1265 28.5992 58.1265 29.0065V34.9475C58.1265 35.0429 58.0832 35.0905 57.9965 35.0905H56.9955C56.9002 35.0905 56.8525 35.0429 56.8525 34.9475V32.1005H54.0055Z" fill="#0A0A0A"/>
<path d="M46.0216 33.1147C46.2989 33.4007 46.6066 33.6303 46.9446 33.8037C47.2913 33.977 47.7159 34.0637 48.2186 34.0637C48.7039 34.0637 49.0723 33.977 49.3236 33.8037C49.5836 33.6217 49.7136 33.3833 49.7136 33.0887C49.7136 32.8633 49.6226 32.6857 49.4406 32.5557C49.2586 32.417 49.0203 32.3 48.7256 32.2047C48.4396 32.1007 48.1363 31.9967 47.8156 31.8927C47.4949 31.78 47.1873 31.6413 46.8926 31.4767C46.6066 31.312 46.3726 31.0953 46.1906 30.8267C46.0086 30.558 45.9176 30.2113 45.9176 29.7867C45.9176 29.3447 46.0303 28.972 46.2556 28.6687C46.4809 28.3653 46.7843 28.1357 47.1656 27.9797C47.5556 27.815 47.9846 27.7327 48.4526 27.7327C48.7819 27.7327 49.0939 27.7587 49.3886 27.8107C49.6833 27.8627 49.9519 27.9363 50.1946 28.0317C50.4633 28.127 50.6279 28.2527 50.6886 28.4087C50.7579 28.556 50.7709 28.7467 50.7276 28.9807L50.6626 29.2667C50.6453 29.3187 50.6279 29.3577 50.6106 29.3837C50.5933 29.4097 50.5629 29.4227 50.5196 29.4227C50.4763 29.4227 50.4113 29.401 50.3246 29.3577C50.0559 29.2103 49.7656 29.0933 49.4536 29.0067C49.1416 28.92 48.8123 28.8767 48.4656 28.8767C48.1103 28.8767 47.8113 28.946 47.5686 29.0847C47.3346 29.2233 47.2176 29.4357 47.2176 29.7217C47.2176 29.9557 47.3086 30.1463 47.4906 30.2937C47.6726 30.4323 47.9066 30.5493 48.1926 30.6447C48.4873 30.74 48.7949 30.8397 49.1156 30.9437C49.4363 31.0477 49.7396 31.1777 50.0256 31.3337C50.3203 31.4897 50.5586 31.6977 50.7406 31.9577C50.9226 32.2177 51.0136 32.5557 51.0136 32.9717C51.0136 33.6477 50.7796 34.1937 50.3116 34.6097C49.8523 35.017 49.2023 35.2207 48.3616 35.2207C47.7463 35.2207 47.2393 35.1253 46.8406 34.9347C46.4506 34.7353 46.1603 34.4883 45.9696 34.1937C45.7876 33.899 45.6966 33.6087 45.6966 33.3227C45.6966 33.1407 45.7573 33.0497 45.8786 33.0497C45.9393 33.0497 45.9869 33.0713 46.0216 33.1147Z" fill="#0A0A0A"/>
<path d="M37.3541 33.2705L36.7691 34.9215C36.7344 35.0342 36.6694 35.0905 36.5741 35.0905H35.5731C35.5297 35.0905 35.4994 35.0775 35.4821 35.0515C35.4647 35.0169 35.4604 34.9822 35.4691 34.9475L37.9911 27.9925C38.0171 27.9059 38.0691 27.8625 38.1471 27.8625H38.5761C38.8881 27.8625 39.1307 27.9275 39.3041 28.0575C39.4774 28.1875 39.6334 28.4432 39.7721 28.8245L41.9951 34.9475C42.0124 34.9822 42.0124 35.0169 41.9951 35.0515C41.9777 35.0775 41.9474 35.0905 41.9041 35.0905H40.8771C40.7471 35.0905 40.6647 35.0342 40.6301 34.9215L40.0451 33.2705H37.3541ZM37.7441 32.1915H39.6811L38.7061 29.3965L37.7441 32.1915Z" fill="#0A0A0A"/>
<path d="M31.3431 32.3865L29.0161 28.0185C28.9987 27.9839 28.9944 27.9492 29.0031 27.9145C29.0204 27.8799 29.0507 27.8625 29.0941 27.8625H29.6011C29.8784 27.8625 30.0994 27.9189 30.2641 28.0315C30.4374 28.1355 30.5934 28.3219 30.7321 28.5905L32.0451 31.0865L33.631 28.0445C33.6917 27.9232 33.7741 27.8625 33.8781 27.8625H34.8791C34.9311 27.8625 34.9614 27.8799 34.9701 27.9145C34.9874 27.9492 34.9874 27.9882 34.9701 28.0315L32.617 32.4125V34.9475C32.617 35.0429 32.5694 35.0905 32.4741 35.0905H31.4731C31.3864 35.0905 31.3431 35.0429 31.3431 34.9475V32.3865Z" fill="#0A0A0A"/>
<path d="M23.5238 33.2705L22.9388 34.9215C22.9041 35.0342 22.8391 35.0905 22.7438 35.0905H21.7428C21.6995 35.0905 21.6691 35.0775 21.6518 35.0515C21.6345 35.0169 21.6301 34.9822 21.6388 34.9475L24.1608 27.9925C24.1868 27.9059 24.2388 27.8625 24.3168 27.8625H24.7458C25.0578 27.8625 25.3005 27.9275 25.4738 28.0575C25.6471 28.1875 25.8031 28.4432 25.9418 28.8245L28.1648 34.9475C28.1821 34.9822 28.1821 35.0169 28.1648 35.0515C28.1475 35.0775 28.1171 35.0905 28.0738 35.0905H27.0468C26.9168 35.0905 26.8345 35.0342 26.7998 34.9215L26.2148 33.2705H23.5238ZM23.9138 32.1915H25.8508L24.8758 29.3965L23.9138 32.1915Z" fill="#0A0A0A"/>
<path d="M16.2979 32.7635V34.9475C16.2979 35.0429 16.2503 35.0905 16.1549 35.0905H15.1669C15.0716 35.0905 15.0239 35.0429 15.0239 34.9475V28.0185C15.0239 27.9145 15.0716 27.8625 15.1669 27.8625H15.2839C15.6133 27.8625 15.8646 27.9535 16.0379 28.1355C16.2113 28.3089 16.2979 28.5992 16.2979 29.0065V31.1385L18.9109 28.0315C18.9976 27.9189 19.0886 27.8625 19.1839 27.8625H20.2499C20.2933 27.8625 20.3193 27.8842 20.3279 27.9275C20.3366 27.9622 20.3279 27.9925 20.3019 28.0185L18.0659 30.6835L20.6399 34.9345C20.6919 35.0385 20.6659 35.0905 20.5619 35.0905H19.4309C19.3183 35.0905 19.2316 35.0385 19.1709 34.9345L17.2079 31.6845L16.2979 32.7635Z" fill="#0A0A0A"/>
<path d="M8.85564 33.2705L8.27064 34.9215C8.23598 35.0342 8.17097 35.0905 8.07564 35.0905H7.07464C7.03131 35.0905 7.00098 35.0775 6.98364 35.0515C6.96631 35.0169 6.96198 34.9822 6.97064 34.9475L9.49264 27.9925C9.51864 27.9059 9.57064 27.8625 9.64864 27.8625H10.0776C10.3896 27.8625 10.6323 27.9275 10.8056 28.0575C10.979 28.1875 11.135 28.4432 11.2736 28.8245L13.4966 34.9475C13.514 34.9822 13.514 35.0169 13.4966 35.0515C13.4793 35.0775 13.449 35.0905 13.4056 35.0905H12.3786C12.2486 35.0905 12.1663 35.0342 12.1316 34.9215L11.5466 33.2705H8.85564ZM9.24564 32.1915H11.1826L10.2076 29.3965L9.24564 32.1915Z" fill="#0A0A0A"/>
<path d="M4.186 32.7505V28.0185C4.186 27.9145 4.23367 27.8625 4.329 27.8625H4.433C4.771 27.8625 5.02667 27.9492 5.2 28.1225C5.37333 28.2959 5.46 28.5862 5.46 28.9935V34.9475C5.46 35.0429 5.41233 35.0905 5.317 35.0905H4.394C4.27267 35.0905 4.17733 35.0342 4.108 34.9215L1.274 30.3065V34.9475C1.274 35.0429 1.22633 35.0905 1.131 35.0905H0.143C0.0476667 35.0905 0 35.0429 0 34.9475V28.0185C0 27.9145 0.0476667 27.8625 0.143 27.8625H0.533C0.801667 27.8625 1.00967 27.9145 1.157 28.0185C1.30433 28.1139 1.44733 28.2742 1.586 28.4995L4.186 32.7505Z" fill="#0A0A0A"/>
</svg>
